<?xml version="1.0" standalone="no"?>
<!DOCTYPE svg PUBLIC "-//W3C//DTD SVG 20010904//EN"
 "http://www.w3.org/TR/2001/REC-SVG-20010904/DTD/svg10.dtd">
<svg version="1.0" xmlns="http://www.w3.org/2000/svg"
 width="484.000000pt" height="484.000000pt" viewBox="0 0 484.000000 484.000000"
 preserveAspectRatio="xMidYMid meet">
<metadata>
Created by potrace 1.14, written by Peter Selinger 2001-2017
</metadata>
<g transform="translate(0.000000,484.000000) scale(0.100000,-0.100000)"
fill="#000000" stroke="none">
<path d="M1298 4310 c-31 -3 -93 -5 -138 -5 -44 0 -80 -4 -80 -8 0 -5 -7 -15
-15 -23 -8 -9 -15 -13 -15 -9 0 4 -7 -1 -16 -9 -8 -9 -20 -14 -25 -11 -5 4 -9
1 -9 -5 0 -7 -7 -9 -16 -6 -8 3 -13 2 -10 -3 7 -11 -22 -23 -35 -15 -5 3 -8 1
-7 -4 2 -6 -1 -10 -5 -11 -4 0 -15 -7 -23 -16 -9 -8 -20 -12 -26 -9 -7 4 -8 2
-4 -4 8 -13 -28 -35 -39 -24 -5 4 -5 2 -2 -4 3 -6 -2 -20 -11 -30 -19 -20 -22
-26 -22 -45 0 -5 -4 -7 -10 -4 -6 3 -7 -1 -4 -9 3 -9 1 -16 -5 -16 -6 0 -10
-3 -10 -7 4 -23 -5 -35 -48 -65 -27 -18 -51 -32 -56 -30 -4 1 -6 -1 -5 -5 3
-12 -38 -74 -45 -67 -3 3 -3 -3 0 -15 3 -12 1 -21 -4 -21 -5 0 -9 -8 -10 -17
-5 -61 -16 -71 -65 -54 -30 11 -33 9 -75 -36 -24 -27 -51 -60 -60 -75 -10 -15
-34 -34 -54 -42 -42 -17 -43 -20 -55 -206 -7 -113 -8 -116 -35 -298 -12 -79
-20 -144 -18 -146 26 -20 177 -106 187 -106 24 0 132 64 132 78 0 7 -5 22 -11
34 -9 17 -8 19 7 16 11 -2 32 -29 49 -60 27 -51 65 -98 79 -98 3 0 30 25 59
55 47 48 77 68 77 49 0 -3 -21 -32 -46 -65 -31 -41 -55 -62 -74 -65 -20 -5
-29 -13 -33 -33 -3 -14 -1 -31 5 -38 11 -14 -35 -49 -51 -39 -5 4 -13 1 -17
-5 -5 -8 -2 -10 7 -5 8 4 3 -1 -11 -12 -13 -11 -28 -18 -32 -16 -4 3 -8 1 -8
-4 0 -11 -60 -55 -76 -55 -7 0 -12 -4 -11 -7 3 -11 -51 -59 -58 -51 -4 3 -6 2
-4 -4 4 -16 -12 -45 -22 -39 -5 3 -6 -2 -3 -10 4 -9 0 -18 -9 -22 -9 -3 -13
-12 -10 -20 3 -8 0 -14 -6 -14 -6 0 -10 -3 -10 -7 4 -22 -2 -43 -10 -39 -5 4
-7 -3 -4 -14 3 -12 0 -20 -6 -20 -7 0 -9 -4 -6 -10 3 -5 2 -10 -3 -10 -23 0
-243 -144 -280 -184 l-42 -45 0 -294 0 -293 72 -50 c40 -27 76 -49 80 -49 4 0
15 -10 23 -23 9 -12 20 -20 25 -17 10 6 22 -23 14 -36 -3 -5 0 -9 7 -9 6 0 9
-8 6 -20 -3 -11 -1 -18 4 -14 8 5 10 0 13 -38 1 -7 4 -15 7 -18 14 -12 60
-151 53 -161 -4 -8 -3 -9 4 -5 13 8 14 4 17 -87 1 -32 -1 -60 -6 -62 -4 -3 -5
-19 -3 -35 3 -17 1 -30 -4 -30 -5 0 -9 -15 -10 -32 -1 -18 -4 -46 -6 -63 -2
-16 -5 -33 -5 -37 -1 -5 -10 -8 -20 -8 -38 0 -52 -27 -48 -93 2 -34 -1 -77 -6
-96 -7 -29 -6 -37 11 -50 19 -15 20 -25 8 -81 -16 -78 -29 -161 -28 -182 1
-10 -2 -18 -6 -18 -4 0 -8 -18 -8 -40 l-1 -40 1823 0 c1367 0 1825 3 1830 12
5 7 3 8 -6 3 -10 -6 -12 -4 -7 8 3 10 2 17 -4 17 -6 0 -7 5 -4 10 3 6 1 10 -5
10 -6 0 -8 5 -5 10 3 6 2 10 -4 10 -6 0 -8 7 -5 15 4 8 -1 17 -10 21 -9 3 -13
10 -10 15 3 5 0 9 -6 9 -6 0 -8 5 -5 10 3 6 1 10 -5 10 -6 0 -8 5 -5 10 3 6 1
10 -5 10 -7 0 -9 7 -6 16 4 10 2 13 -6 8 -8 -5 -9 -2 -5 9 3 10 2 17 -3 17
-13 0 -42 58 -35 70 3 6 1 10 -5 10 -6 0 -8 5 -5 10 3 6 1 10 -5 10 -6 0 -8 5
-5 10 3 6 1 10 -5 10 -6 0 -8 5 -5 10 3 6 1 10 -5 10 -6 0 -8 5 -5 10 3 6 2
10 -4 10 -18 0 -5 28 39 80 74 89 180 192 156 153 -4 -7 25 20 63 59 39 40 71
75 71 78 0 3 12 16 28 30 15 14 21 21 13 15 -10 -7 -9 -2 3 18 17 25 35 40 20
15 -4 -7 -3 -8 5 -4 7 4 10 13 8 19 -2 7 3 18 12 25 13 11 13 12 1 7 -8 -4 -4
3 10 15 14 12 19 19 12 15 -10 -5 -9 1 2 24 9 17 19 31 22 31 3 0 2 -5 -2 -12
-5 -7 -3 -8 5 -4 7 5 10 14 7 22 -3 8 -1 14 5 14 6 0 7 5 4 10 -3 6 -1 10 5
10 6 0 8 5 5 10 -3 6 -1 10 5 10 6 0 8 5 5 10 -3 6 -1 10 5 10 6 0 8 5 5 11
-4 6 -14 8 -22 5 -8 -3 -11 -2 -8 3 3 5 0 13 -5 16 -8 5 -6 13 6 26 9 10 21
16 25 13 5 -3 6 1 3 9 -3 8 3 20 13 28 17 13 17 13 3 -6 -14 -19 -14 -19 2 -6
10 7 16 17 13 21 -2 4 10 23 28 42 17 19 23 23 12 9 -18 -24 -17 -23 12 3 18
16 30 33 27 38 -8 12 35 58 54 58 8 0 12 6 9 14 -3 8 6 24 21 37 l27 24 -25
-30 -25 -30 27 24 c15 13 24 28 22 35 -3 7 8 23 23 36 l28 25 -20 -25 c-16
-21 -15 -21 8 3 15 15 25 32 23 36 -3 4 7 19 22 32 l27 24 -20 -25 -20 -25 22
19 c13 10 20 22 18 27 -3 4 7 20 21 36 15 15 20 19 13 8 -13 -18 -13 -19 3 -6
10 7 16 17 13 21 -7 12 45 71 56 65 5 -4 6 0 4 8 -3 7 5 22 17 33 l23 19 -20
-25 -20 -25 22 19 c13 10 20 23 17 28 -3 5 9 23 28 40 18 17 26 28 18 24 -8
-4 -4 2 10 14 14 12 19 19 13 15 -9 -4 -11 -1 -7 9 3 9 11 13 16 10 6 -4 9 -1
6 7 -3 8 1 20 9 27 7 8 11 18 8 23 -4 5 -1 9 5 9 7 0 9 7 6 16 -4 10 -2 13 6
8 8 -5 9 -2 5 9 -3 10 -2 17 4 17 6 0 7 5 4 10 -3 6 -1 10 5 10 7 0 9 7 6 16
-4 10 -2 13 6 8 8 -5 9 -2 5 9 -4 10 -2 17 4 17 6 0 9 7 5 15 -3 8 -1 15 4 15
5 0 6 7 3 17 -4 11 -3 14 5 9 9 -5 12 99 12 432 l0 439 -25 11 c-14 6 -24 16
-23 21 2 5 1 9 -2 8 -16 -2 -50 26 -44 36 4 7 4 9 -1 5 -11 -11 -47 11 -39 24
4 7 3 8 -4 4 -7 -4 -12 -2 -12 3 0 6 -6 10 -12 8 -7 -1 -12 3 -11 10 2 7 -3
10 -11 7 -8 -3 -17 0 -22 7 -5 8 -3 10 6 4 8 -5 11 -4 6 3 -4 6 -13 9 -20 6
-8 -3 -17 0 -22 7 -5 8 -3 10 6 4 9 -5 11 -4 6 4 -4 6 -12 8 -18 5 -6 -4 -17
1 -25 11 -7 11 -13 15 -13 10 0 -5 -7 0 -16 11 -8 10 -12 13 -9 5 5 -9 0 -8
-18 4 -14 9 -28 23 -31 31 -3 9 -11 12 -17 9 -5 -4 -17 1 -25 11 -9 11 -13 13
-9 4 6 -13 5 -13 -7 0 -7 8 -20 16 -28 18 -8 2 -21 10 -27 19 -7 9 -13 13 -13
8 0 -5 -7 0 -16 11 -8 10 -12 13 -9 6 6 -11 3 -12 -14 -3 -11 7 -21 14 -21 17
0 3 5 2 12 -2 7 -4 8 -3 4 4 -4 6 -13 9 -21 5 -8 -3 -15 0 -15 6 0 6 -3 10 -7
10 -20 -3 -34 2 -28 11 3 5 0 7 -9 4 -8 -3 -19 3 -25 15 -6 11 -17 18 -25 15
-7 -3 -16 2 -20 11 -3 9 -11 13 -17 10 -5 -4 -17 1 -25 11 -9 11 -13 13 -9 7
4 -9 1 -11 -9 -7 -9 3 -13 10 -10 15 3 5 -3 6 -12 2 -13 -5 -15 -3 -9 7 6 9 4
11 -4 6 -7 -5 -19 0 -27 10 -9 11 -12 13 -8 5 5 -10 -2 -8 -25 5 -17 10 -31
22 -31 27 0 4 -4 5 -10 2 -5 -3 -10 -1 -10 5 0 6 -4 8 -10 5 -5 -3 -10 -1 -10
5 0 6 -4 9 -9 5 -5 -3 -16 1 -24 9 -8 8 -17 12 -21 9 -3 -4 -6 -1 -6 5 0 6 -7
9 -15 6 -8 -4 -17 1 -21 9 -3 9 -12 13 -19 11 -18 -7 -57 14 -50 26 4 6 -1 7
-11 3 -13 -5 -15 -3 -9 7 6 9 4 11 -4 6 -7 -5 -19 0 -27 10 -9 11 -13 13 -9 7
4 -9 1 -11 -9 -7 -9 3 -13 10 -10 15 3 5 -2 6 -10 3 -9 -3 -16 -1 -16 6 0 6
-4 8 -10 5 -5 -3 -10 -1 -10 5 0 6 -4 8 -10 5 -5 -3 -10 -1 -10 5 0 6 -4 9 -9
6 -13 -8 -42 4 -35 15 3 5 -3 6 -12 2 -12 -4 -15 -3 -10 5 5 8 2 10 -8 6 -9
-3 -16 -1 -16 5 0 6 -7 8 -17 4 -12 -5 -14 -3 -8 7 5 8 4 11 -3 6 -12 -7 -62
13 -62 25 0 5 -7 5 -17 2 -12 -5 -14 -3 -8 7 6 10 4 12 -8 7 -10 -3 -17 -2
-17 3 0 5 -7 6 -17 3 -12 -5 -14 -3 -8 7 5 8 4 11 -2 7 -14 -9 -114 33 -107
44 3 5 -3 6 -12 2 -12 -4 -15 -3 -10 6 5 8 3 11 -5 10 -22 -4 -60 11 -54 22 3
5 -2 6 -11 2 -12 -4 -15 -3 -10 5 5 8 1 10 -10 5 -12 -4 -15 -3 -10 5 5 8 2
10 -8 6 -9 -3 -16 -1 -16 5 0 6 -3 10 -7 10 -20 -3 -34 2 -28 11 3 6 -1 7 -9
4 -9 -3 -16 -1 -16 5 0 6 -3 10 -7 10 -20 -3 -34 2 -28 11 4 6 -1 7 -11 3 -12
-4 -15 -3 -10 5 5 8 1 10 -10 5 -12 -4 -15 -3 -10 5 5 8 1 10 -10 5 -13 -5
-15 -3 -9 7 5 8 4 11 -3 7 -14 -9 -43 3 -36 14 3 5 -3 6 -12 2 -12 -4 -15 -3
-10 5 4 7 2 10 -6 7 -8 -3 -23 3 -35 14 -11 11 -24 17 -27 14 -3 -4 -6 -1 -6
5 0 7 -3 11 -7 11 -20 -3 -34 3 -62 27 -17 14 -28 30 -25 35 3 5 2 8 -3 7 -13
-5 -53 28 -45 37 4 5 2 5 -5 1 -7 -4 -21 2 -32 13 -11 11 -22 17 -25 13 -3 -3
-6 0 -6 7 0 7 -4 10 -9 7 -10 -6 -71 15 -71 25 0 4 -9 5 -20 2 -11 -3 -20 -1
-20 3 0 10 -31 13 -120 13 -110 0 -140 -2 -140 -11 0 -5 -16 -7 -35 -5 -19 2
-32 0 -29 -4 2 -5 -11 -7 -31 -5 -19 1 -35 0 -35 -4 0 -6 -201 -4 -325 5 -44
3 -109 7 -145 8 -36 2 -70 6 -76 9 -6 4 -47 6 -91 5 -45 -1 -80 0 -78 3 4 6
-25 6 -97 0z"/>
<path d="M580 2856 c0 -2 8 -10 18 -17 15 -13 16 -12 3 4 -13 16 -21 21 -21
13z"/>
<path d="M554 2758 l-19 -23 23 19 c21 18 27 26 19 26 -2 0 -12 -10 -23 -22z"/>
<path d="M637 2711 c-4 -17 -3 -21 5 -13 5 5 8 16 6 23 -3 8 -7 3 -11 -10z"/>
<path d="M4579 1723 c-13 -16 -12 -17 4 -4 9 7 17 15 17 17 0 8 -8 3 -21 -13z"/>
<path d="M4304 1398 l-19 -23 23 19 c12 11 22 21 22 23 0 8 -8 2 -26 -19z"/>
<path d="M3930 795 c-24 -25 -42 -45 -39 -45 3 0 25 20 49 45 24 25 42 45 39
45 -3 0 -25 -20 -49 -45z"/>
<path d="M3809 693 c-13 -16 -12 -17 4 -4 16 13 21 21 13 21 -2 0 -10 -8 -17
-17z"/>
</g>
</svg>
